# xmcd
#
# Track frame offsets: 
#        150
#        9797
#        21497
#        30355
#        41532
#        50832
#        59605
#        70440
#        81797
#        90087
#        100592
#        109612
#        120447
#
# Disc length: 1730 seconds
#
# Revision: 2
# Processed by: cddbd v1.5.2PL0 Copyright (c) Steve Scherf et al.
# Submitted via: ExactAudioCopyFreeDBPlugin 1.0
#
DISCID=9706c00d
DTITLE=Johnny Cash - Hymns By Johnny Cash
DYEAR=1959
DGENRE=Country
TTITLE0=It Was Jesus
TTITLE1=I Saw A Man
TTITLE2=Are All The Children In
TTITLE3=The Old Account
TTITLE4=Lead Me Gently Home
TTITLE5=Swing Low, Sweet Chariot
TTITLE6=Snow In His Hair
TTITLE7=Lead Me Father
TTITLE8=I Call Him
TTITLE9=These Things Shall Pass
TTITLE10=He'll Be A Friend
TTITLE11=God Will
TTITLE12=It Was Jesus (Mono EP Version)
EXTD=Sony Music Entertainment Inc.
EXTT0=
EXTT1=
EXTT2=
EXTT3=
EXTT4=
EXTT5=
EXTT6=
EXTT7=
EXTT8=
EXTT9=
EXTT10=
EXTT11=
EXTT12=
PLAYORDER=
